<svg width="487" height="123" viewBox="0 0 487 123" fill="none" xmlns="http://www.w3.org/2000/svg">
<path d="M7.008 50.912V43.872L27.936 13.92H38.368V43.104H44V50.912H38.368V60H29.408V50.912H7.008ZM29.984 23.52L16.864 43.104H29.984V23.52ZM57.5125 35.296C53.2458 33.0773 51.1125 29.6427 51.1125 24.992C51.1125 22.688 51.6885 20.5973 52.8405 18.72C54.0352 16.8 55.8058 15.2853 58.1525 14.176C60.5418 13.024 63.4432 12.448 66.8565 12.448C70.2698 12.448 73.1498 13.024 75.4965 14.176C77.8858 15.2853 79.6565 16.8 80.8085 18.72C82.0032 20.5973 82.6005 22.688 82.6005 24.992C82.6005 27.3387 82.0245 29.408 80.8725 31.2C79.7205 32.9493 78.1845 34.3147 76.2645 35.296C78.6112 36.32 80.4458 37.8133 81.7685 39.776C83.0912 41.7387 83.7525 44.064 83.7525 46.752C83.7525 49.6533 83.0058 52.192 81.5125 54.368C80.0618 56.5013 78.0565 58.144 75.4965 59.296C72.9365 60.448 70.0565 61.024 66.8565 61.024C63.6565 61.024 60.7765 60.448 58.2165 59.296C55.6992 58.144 53.6938 56.5013 52.2005 54.368C50.7498 52.192 50.0245 49.6533 50.0245 46.752C50.0245 44.064 50.6858 41.7387 52.0085 39.776C53.3312 37.7707 55.1658 36.2773 57.5125 35.296ZM73.8965 26.272C73.8965 24.1813 73.2565 22.56 71.9765 21.408C70.7392 20.256 69.0325 19.68 66.8565 19.68C64.7232 19.68 63.0165 20.256 61.7365 21.408C60.4992 22.56 59.8805 24.2027 59.8805 26.336C59.8805 28.256 60.5205 29.792 61.8005 30.944C63.1232 32.096 64.8085 32.672 66.8565 32.672C68.9045 32.672 70.5898 32.096 71.9125 30.944C73.2352 29.7493 73.8965 28.192 73.8965 26.272ZM66.8565 39.2C64.4245 39.2 62.4405 39.8187 60.9045 41.056C59.4112 42.2933 58.6645 44.064 58.6645 46.368C58.6645 48.5013 59.3898 50.2507 60.8405 51.616C62.3338 52.9387 64.3392 53.6 66.8565 53.6C69.3738 53.6 71.3578 52.9173 72.8085 51.552C74.2592 50.1867 74.9845 48.4587 74.9845 46.368C74.9845 44.1067 74.2378 42.3573 72.7445 41.12C71.2512 39.84 69.2885 39.2 66.8565 39.2ZM101.198 46.88C101.539 48.7573 102.307 50.208 103.502 51.232C104.739 52.2133 106.382 52.704 108.43 52.704C111.075 52.704 112.995 51.616 114.19 49.44C115.384 47.2213 115.982 43.5093 115.982 38.304C115 39.6693 113.614 40.736 111.822 41.504C110.072 42.272 108.174 42.656 106.126 42.656C103.395 42.656 100.92 42.1013 98.7015 40.992C96.5255 39.84 94.7975 38.1547 93.5175 35.936C92.2375 33.6747 91.5975 30.944 91.5975 27.744C91.5975 23.008 93.0055 19.2533 95.8215 16.48C98.6375 13.664 102.478 12.256 107.342 12.256C113.4 12.256 117.667 14.1973 120.142 18.08C122.659 21.9627 123.918 27.808 123.918 35.616C123.918 41.1627 123.427 45.7067 122.446 49.248C121.507 52.7893 119.864 55.4773 117.518 57.312C115.214 59.1467 112.056 60.064 108.046 60.064C104.888 60.064 102.2 59.4667 99.9815 58.272C97.7628 57.0347 96.0562 55.4347 94.8615 53.472C93.7095 51.4667 93.0482 49.2693 92.8775 46.88H101.198ZM107.982 35.36C110.2 35.36 111.95 34.6773 113.23 33.312C114.51 31.9467 115.15 30.112 115.15 27.808C115.15 25.2907 114.467 23.3493 113.102 21.984C111.779 20.576 109.966 19.872 107.662 19.872C105.358 19.872 103.523 20.5973 102.158 22.048C100.835 23.456 100.174 25.3333 100.174 27.68C100.174 29.9413 100.814 31.7973 102.094 33.248C103.416 34.656 105.379 35.36 107.982 35.36ZM165.388 41.12H153.292V53.536H144.844V41.12H132.748V33.312H144.844V20.896H153.292V33.312H165.388V41.12Z" fill="black" fill-opacity="0.8"/>
<path d="M0.888 106.624C0.888 104.992 1.264 103.528 2.016 102.232C2.784 100.936 3.816 99.928 5.112 99.208C6.424 98.472 7.856 98.104 9.408 98.104C11.184 98.104 12.76 98.544 14.136 99.424C15.528 100.288 16.536 101.52 17.16 103.12H13.872C13.44 102.24 12.84 101.584 12.072 101.152C11.304 100.72 10.416 100.504 9.408 100.504C8.304 100.504 7.32 100.752 6.456 101.248C5.592 101.744 4.912 102.456 4.416 103.384C3.936 104.312 3.696 105.392 3.696 106.624C3.696 107.856 3.936 108.936 4.416 109.864C4.912 110.792 5.592 111.512 6.456 112.024C7.32 112.52 8.304 112.768 9.408 112.768C10.416 112.768 11.304 112.552 12.072 112.12C12.84 111.688 13.44 111.032 13.872 110.152H17.16C16.536 111.752 15.528 112.984 14.136 113.848C12.76 114.712 11.184 115.144 9.408 115.144C7.84 115.144 6.408 114.784 5.112 114.064C3.816 113.328 2.784 112.312 2.016 111.016C1.264 109.72 0.888 108.256 0.888 106.624ZM26.0985 115.216C24.8505 115.216 23.7225 114.936 22.7145 114.376C21.7065 113.8 20.9145 113 20.3385 111.976C19.7625 110.936 19.4745 109.736 19.4745 108.376C19.4745 107.032 19.7705 105.84 20.3625 104.8C20.9545 103.76 21.7625 102.96 22.7865 102.4C23.8105 101.84 24.9545 101.56 26.2185 101.56C27.4825 101.56 28.6265 101.84 29.6505 102.4C30.6745 102.96 31.4825 103.76 32.0745 104.8C32.6665 105.84 32.9625 107.032 32.9625 108.376C32.9625 109.72 32.6585 110.912 32.0505 111.952C31.4425 112.992 30.6105 113.8 29.5545 114.376C28.5145 114.936 27.3625 115.216 26.0985 115.216ZM26.0985 112.84C26.8025 112.84 27.4585 112.672 28.0665 112.336C28.6905 112 29.1945 111.496 29.5785 110.824C29.9625 110.152 30.1545 109.336 30.1545 108.376C30.1545 107.416 29.9705 106.608 29.6025 105.952C29.2345 105.28 28.7465 104.776 28.1385 104.44C27.5305 104.104 26.8745 103.936 26.1705 103.936C25.4665 103.936 24.8105 104.104 24.2025 104.44C23.6105 104.776 23.1385 105.28 22.7865 105.952C22.4345 106.608 22.2585 107.416 22.2585 108.376C22.2585 109.8 22.6185 110.904 23.3385 111.688C24.0745 112.456 24.9945 112.84 26.0985 112.84ZM47.6432 101.776V115H44.9072V113.44C44.4752 113.984 43.9072 114.416 43.2032 114.736C42.5152 115.04 41.7792 115.192 40.9952 115.192C39.9552 115.192 39.0192 114.976 38.1872 114.544C37.3712 114.112 36.7232 113.472 36.2432 112.624C35.7792 111.776 35.5472 110.752 35.5472 109.552V101.776H38.2592V109.144C38.2592 110.328 38.5552 111.24 39.1472 111.88C39.7392 112.504 40.5472 112.816 41.5712 112.816C42.5952 112.816 43.4032 112.504 43.9952 111.88C44.6032 111.24 44.9072 110.328 44.9072 109.144V101.776H47.6432ZM53.9891 103.696C54.3891 103.024 54.9171 102.504 55.5731 102.136C56.2451 101.752 57.0371 101.56 57.9491 101.56V104.392H57.2531C56.1811 104.392 55.3651 104.664 54.8051 105.208C54.2611 105.752 53.9891 106.696 53.9891 108.04V115H51.2531V101.776H53.9891V103.696ZM65.2641 115.216C64.2241 115.216 63.2881 115.032 62.4561 114.664C61.6401 114.28 60.9921 113.768 60.5121 113.128C60.0321 112.472 59.7761 111.744 59.7441 110.944H62.5761C62.6241 111.504 62.8881 111.976 63.3681 112.36C63.8641 112.728 64.4801 112.912 65.2161 112.912C65.9841 112.912 66.5761 112.768 66.9921 112.48C67.4241 112.176 67.6401 111.792 67.6401 111.328C67.6401 110.832 67.4001 110.464 66.9201 110.224C66.4561 109.984 65.7121 109.72 64.6881 109.432C63.6961 109.16 62.8881 108.896 62.2641 108.64C61.6401 108.384 61.0961 107.992 60.6321 107.464C60.1841 106.936 59.9601 106.24 59.9601 105.376C59.9601 104.672 60.1681 104.032 60.5841 103.456C61.0001 102.864 61.5921 102.4 62.3601 102.064C63.1441 101.728 64.0401 101.56 65.0481 101.56C66.5521 101.56 67.7601 101.944 68.6721 102.712C69.6001 103.464 70.0961 104.496 70.1601 105.808H67.4241C67.3761 105.216 67.1361 104.744 66.7041 104.392C66.2721 104.04 65.6881 103.864 64.9521 103.864C64.2321 103.864 63.6801 104 63.2961 104.272C62.9121 104.544 62.7201 104.904 62.7201 105.352C62.7201 105.704 62.8481 106 63.1041 106.24C63.3601 106.48 63.6721 106.672 64.0401 106.816C64.4081 106.944 64.9521 107.112 65.6721 107.32C66.6321 107.576 67.4161 107.84 68.0241 108.112C68.6481 108.368 69.1841 108.752 69.6321 109.264C70.0801 109.776 70.3121 110.456 70.3281 111.304C70.3281 112.056 70.1201 112.728 69.7041 113.32C69.2881 113.912 68.6961 114.376 67.9281 114.712C67.1761 115.048 66.2881 115.216 65.2641 115.216ZM85.4044 108.064C85.4044 108.56 85.3724 109.008 85.3084 109.408H75.2044C75.2844 110.464 75.6764 111.312 76.3804 111.952C77.0844 112.592 77.9484 112.912 78.9724 112.912C80.4444 112.912 81.4844 112.296 82.0924 111.064H85.0444C84.6444 112.28 83.9164 113.28 82.8604 114.064C81.8204 114.832 80.5244 115.216 78.9724 115.216C77.7084 115.216 76.5724 114.936 75.5644 114.376C74.5724 113.8 73.7884 113 73.2124 111.976C72.6524 110.936 72.3724 109.736 72.3724 108.376C72.3724 107.016 72.6444 105.824 73.1884 104.8C73.7484 103.76 74.5244 102.96 75.5164 102.4C76.5244 101.84 77.6764 101.56 78.9724 101.56C80.2204 101.56 81.3324 101.832 82.3084 102.376C83.2844 102.92 84.0444 103.688 84.5884 104.68C85.1324 105.656 85.4044 106.784 85.4044 108.064ZM82.5484 107.2C82.5324 106.192 82.1724 105.384 81.4684 104.776C80.7644 104.168 79.8924 103.864 78.8524 103.864C77.9084 103.864 77.1004 104.168 76.4284 104.776C75.7564 105.368 75.3564 106.176 75.2284 107.2H82.5484ZM93.4193 106.624C93.4193 104.992 93.7953 103.528 94.5473 102.232C95.3153 100.936 96.3473 99.928 97.6433 99.208C98.9553 98.472 100.387 98.104 101.939 98.104C103.715 98.104 105.291 98.544 106.667 99.424C108.059 100.288 109.067 101.52 109.691 103.12H106.403C105.971 102.24 105.371 101.584 104.603 101.152C103.835 100.72 102.947 100.504 101.939 100.504C100.835 100.504 99.8513 100.752 98.9873 101.248C98.1233 101.744 97.4433 102.456 96.9473 103.384C96.4673 104.312 96.2273 105.392 96.2273 106.624C96.2273 107.856 96.4673 108.936 96.9473 109.864C97.4433 110.792 98.1233 111.512 98.9873 112.024C99.8513 112.52 100.835 112.768 101.939 112.768C102.947 112.768 103.835 112.552 104.603 112.12C105.371 111.688 105.971 111.032 106.403 110.152H109.691C109.067 111.752 108.059 112.984 106.667 113.848C105.291 114.712 103.715 115.144 101.939 115.144C100.371 115.144 98.9393 114.784 97.6433 114.064C96.3473 113.328 95.3153 112.312 94.5473 111.016C93.7953 109.72 93.4193 108.256 93.4193 106.624ZM118.63 115.216C117.382 115.216 116.254 114.936 115.246 114.376C114.238 113.8 113.446 113 112.87 111.976C112.294 110.936 112.006 109.736 112.006 108.376C112.006 107.032 112.302 105.84 112.894 104.8C113.486 103.76 114.294 102.96 115.318 102.4C116.342 101.84 117.486 101.56 118.75 101.56C120.014 101.56 121.158 101.84 122.182 102.4C123.206 102.96 124.014 103.76 124.606 104.8C125.198 105.84 125.494 107.032 125.494 108.376C125.494 109.72 125.19 110.912 124.582 111.952C123.974 112.992 123.142 113.8 122.086 114.376C121.046 114.936 119.894 115.216 118.63 115.216ZM118.63 112.84C119.334 112.84 119.99 112.672 120.598 112.336C121.222 112 121.726 111.496 122.11 110.824C122.494 110.152 122.686 109.336 122.686 108.376C122.686 107.416 122.502 106.608 122.134 105.952C121.766 105.28 121.278 104.776 120.67 104.44C120.062 104.104 119.406 103.936 118.702 103.936C117.998 103.936 117.342 104.104 116.734 104.44C116.142 104.776 115.67 105.28 115.318 105.952C114.966 106.608 114.79 107.416 114.79 108.376C114.79 109.8 115.15 110.904 115.87 111.688C116.606 112.456 117.526 112.84 118.63 112.84ZM144.206 101.56C145.246 101.56 146.174 101.776 146.99 102.208C147.822 102.64 148.47 103.28 148.934 104.128C149.414 104.976 149.654 106 149.654 107.2V115H146.942V107.608C146.942 106.424 146.646 105.52 146.054 104.896C145.462 104.256 144.654 103.936 143.63 103.936C142.606 103.936 141.79 104.256 141.182 104.896C140.59 105.52 140.294 106.424 140.294 107.608V115H137.582V107.608C137.582 106.424 137.286 105.52 136.694 104.896C136.102 104.256 135.294 103.936 134.27 103.936C133.246 103.936 132.43 104.256 131.822 104.896C131.23 105.52 130.934 106.424 130.934 107.608V115H128.198V101.776H130.934V103.288C131.382 102.744 131.95 102.32 132.638 102.016C133.326 101.712 134.062 101.56 134.846 101.56C135.902 101.56 136.846 101.784 137.678 102.232C138.51 102.68 139.15 103.328 139.598 104.176C139.998 103.376 140.622 102.744 141.47 102.28C142.318 101.8 143.23 101.56 144.206 101.56ZM155.872 103.72C156.336 103.112 156.968 102.6 157.768 102.184C158.568 101.768 159.472 101.56 160.48 101.56C161.632 101.56 162.68 101.848 163.624 102.424C164.584 102.984 165.336 103.776 165.88 104.8C166.424 105.824 166.696 107 166.696 108.328C166.696 109.656 166.424 110.848 165.88 111.904C165.336 112.944 164.584 113.76 163.624 114.352C162.68 114.928 161.632 115.216 160.48 115.216C159.472 115.216 158.576 115.016 157.792 114.616C157.008 114.2 156.368 113.688 155.872 113.08V121.288H153.136V101.776H155.872V103.72ZM163.912 108.328C163.912 107.416 163.72 106.632 163.336 105.976C162.968 105.304 162.472 104.8 161.848 104.464C161.24 104.112 160.584 103.936 159.88 103.936C159.192 103.936 158.536 104.112 157.912 104.464C157.304 104.816 156.808 105.328 156.424 106C156.056 106.672 155.872 107.464 155.872 108.376C155.872 109.288 156.056 110.088 156.424 110.776C156.808 111.448 157.304 111.96 157.912 112.312C158.536 112.664 159.192 112.84 159.88 112.84C160.584 112.84 161.24 112.664 161.848 112.312C162.472 111.944 162.968 111.416 163.336 110.728C163.72 110.04 163.912 109.24 163.912 108.328ZM172.138 97.24V115H169.402V97.24H172.138ZM187.85 108.064C187.85 108.56 187.818 109.008 187.754 109.408H177.65C177.73 110.464 178.122 111.312 178.826 111.952C179.53 112.592 180.394 112.912 181.418 112.912C182.89 112.912 183.93 112.296 184.538 111.064H187.49C187.09 112.28 186.362 113.28 185.306 114.064C184.266 114.832 182.97 115.216 181.418 115.216C180.154 115.216 179.018 114.936 178.01 114.376C177.018 113.8 176.234 113 175.658 111.976C175.098 110.936 174.818 109.736 174.818 108.376C174.818 107.016 175.09 105.824 175.634 104.8C176.194 103.76 176.97 102.96 177.962 102.4C178.97 101.84 180.122 101.56 181.418 101.56C182.666 101.56 183.778 101.832 184.754 102.376C185.73 102.92 186.49 103.688 187.034 104.68C187.578 105.656 187.85 106.784 187.85 108.064ZM184.994 107.2C184.978 106.192 184.618 105.384 183.914 104.776C183.21 104.168 182.338 103.864 181.298 103.864C180.354 103.864 179.546 104.168 178.874 104.776C178.202 105.368 177.802 106.176 177.674 107.2H184.994ZM193.734 104.008V111.328C193.734 111.824 193.846 112.184 194.07 112.408C194.31 112.616 194.71 112.72 195.27 112.72H196.95V115H194.79C193.558 115 192.614 114.712 191.958 114.136C191.302 113.56 190.974 112.624 190.974 111.328V104.008H189.414V101.776H190.974V98.488H193.734V101.776H196.95V104.008H193.734ZM211.592 108.064C211.592 108.56 211.56 109.008 211.496 109.408H201.392C201.472 110.464 201.864 111.312 202.568 111.952C203.272 112.592 204.136 112.912 205.16 112.912C206.632 112.912 207.672 112.296 208.28 111.064H211.232C210.832 112.28 210.104 113.28 209.048 114.064C208.008 114.832 206.712 115.216 205.16 115.216C203.896 115.216 202.76 114.936 201.752 114.376C200.76 113.8 199.976 113 199.4 111.976C198.84 110.936 198.56 109.736 198.56 108.376C198.56 107.016 198.832 105.824 199.376 104.8C199.936 103.76 200.712 102.96 201.704 102.4C202.712 101.84 203.864 101.56 205.16 101.56C206.408 101.56 207.52 101.832 208.496 102.376C209.472 102.92 210.232 103.688 210.776 104.68C211.32 105.656 211.592 106.784 211.592 108.064ZM208.736 107.2C208.72 106.192 208.36 105.384 207.656 104.776C206.952 104.168 206.08 103.864 205.04 103.864C204.096 103.864 203.288 104.168 202.616 104.776C201.944 105.368 201.544 106.176 201.416 107.2H208.736ZM213.372 108.328C213.372 107 213.644 105.824 214.188 104.8C214.748 103.776 215.5 102.984 216.444 102.424C217.404 101.848 218.468 101.56 219.636 101.56C220.5 101.56 221.348 101.752 222.18 102.136C223.028 102.504 223.7 103 224.196 103.624V97.24H226.956V115H224.196V113.008C223.748 113.648 223.124 114.176 222.324 114.592C221.54 115.008 220.636 115.216 219.612 115.216C218.46 115.216 217.404 114.928 216.444 114.352C215.5 113.76 214.748 112.944 214.188 111.904C213.644 110.848 213.372 109.656 213.372 108.328ZM224.196 108.376C224.196 107.464 224.004 106.672 223.62 106C223.252 105.328 222.764 104.816 222.156 104.464C221.548 104.112 220.892 103.936 220.188 103.936C219.484 103.936 218.828 104.112 218.22 104.464C217.612 104.8 217.116 105.304 216.732 105.976C216.364 106.632 216.18 107.416 216.18 108.328C216.18 109.24 216.364 110.04 216.732 110.728C217.116 111.416 217.612 111.944 218.22 112.312C218.844 112.664 219.5 112.84 220.188 112.84C220.892 112.84 221.548 112.664 222.156 112.312C222.764 111.96 223.252 111.448 223.62 110.776C224.004 110.088 224.196 109.288 224.196 108.376Z" fill="black" fill-opacity="0.8"/>
<path d="M327.752 21.088H307.016V32.032C307.912 30.9227 309.192 30.0267 310.856 29.344C312.52 28.6187 314.291 28.256 316.168 28.256C319.581 28.256 322.376 29.0027 324.552 30.496C326.728 31.9893 328.307 33.9093 329.288 36.256C330.269 38.56 330.76 41.0347 330.76 43.68C330.76 48.5867 329.352 52.5333 326.536 55.52C323.763 58.5067 319.795 60 314.632 60C309.768 60 305.885 58.784 302.984 56.352C300.083 53.92 298.44 50.7413 298.056 46.816H306.76C307.144 48.5227 307.997 49.888 309.32 50.912C310.685 51.936 312.413 52.448 314.504 52.448C317.021 52.448 318.92 51.6587 320.2 50.08C321.48 48.5013 322.12 46.4107 322.12 43.808C322.12 41.1627 321.459 39.1573 320.136 37.792C318.856 36.384 316.957 35.68 314.44 35.68C312.648 35.68 311.155 36.128 309.96 37.024C308.765 37.92 307.912 39.1147 307.4 40.608H298.824V13.216H327.752V21.088ZM359.596 60L347.564 44.896V60H338.604V12.64H347.564V39.584L359.468 24.544H371.116L355.5 42.336L371.244 60H359.596ZM409.451 41.12H397.355V53.536H388.907V41.12H376.811V33.312H388.907V20.896H397.355V33.312H409.451V41.12Z" fill="black" fill-opacity="0.8"/>
<path d="M308.12 98.32V115H305.384V107.704H297.536V115H294.8V98.32H297.536V105.472H305.384V98.32H308.12ZM310.81 108.328C310.81 107 311.082 105.824 311.626 104.8C312.186 103.776 312.938 102.984 313.882 102.424C314.842 101.848 315.898 101.56 317.05 101.56C318.09 101.56 318.994 101.768 319.762 102.184C320.546 102.584 321.17 103.088 321.634 103.696V101.776H324.394V115H321.634V113.032C321.17 113.656 320.538 114.176 319.738 114.592C318.938 115.008 318.026 115.216 317.002 115.216C315.866 115.216 314.826 114.928 313.882 114.352C312.938 113.76 312.186 112.944 311.626 111.904C311.082 110.848 310.81 109.656 310.81 108.328ZM321.634 108.376C321.634 107.464 321.442 106.672 321.058 106C320.69 105.328 320.202 104.816 319.594 104.464C318.986 104.112 318.33 103.936 317.626 103.936C316.922 103.936 316.266 104.112 315.658 104.464C315.05 104.8 314.554 105.304 314.17 105.976C313.802 106.632 313.618 107.416 313.618 108.328C313.618 109.24 313.802 110.04 314.17 110.728C314.554 111.416 315.05 111.944 315.658 112.312C316.282 112.664 316.938 112.84 317.626 112.84C318.33 112.84 318.986 112.664 319.594 112.312C320.202 111.96 320.69 111.448 321.058 110.776C321.442 110.088 321.634 109.288 321.634 108.376ZM330.724 103.72C331.188 103.112 331.82 102.6 332.62 102.184C333.42 101.768 334.324 101.56 335.332 101.56C336.484 101.56 337.532 101.848 338.476 102.424C339.436 102.984 340.188 103.776 340.732 104.8C341.276 105.824 341.548 107 341.548 108.328C341.548 109.656 341.276 110.848 340.732 111.904C340.188 112.944 339.436 113.76 338.476 114.352C337.532 114.928 336.484 115.216 335.332 115.216C334.324 115.216 333.428 115.016 332.644 114.616C331.86 114.2 331.22 113.688 330.724 113.08V121.288H327.988V101.776H330.724V103.72ZM338.764 108.328C338.764 107.416 338.572 106.632 338.188 105.976C337.82 105.304 337.324 104.8 336.7 104.464C336.092 104.112 335.436 103.936 334.732 103.936C334.044 103.936 333.388 104.112 332.764 104.464C332.156 104.816 331.66 105.328 331.276 106C330.908 106.672 330.724 107.464 330.724 108.376C330.724 109.288 330.908 110.088 331.276 110.776C331.66 111.448 332.156 111.96 332.764 112.312C333.388 112.664 334.044 112.84 334.732 112.84C335.436 112.84 336.092 112.664 336.7 112.312C337.324 111.944 337.82 111.416 338.188 110.728C338.572 110.04 338.764 109.24 338.764 108.328ZM346.989 103.72C347.453 103.112 348.085 102.6 348.885 102.184C349.685 101.768 350.589 101.56 351.597 101.56C352.749 101.56 353.797 101.848 354.741 102.424C355.701 102.984 356.453 103.776 356.997 104.8C357.541 105.824 357.813 107 357.813 108.328C357.813 109.656 357.541 110.848 356.997 111.904C356.453 112.944 355.701 113.76 354.741 114.352C353.797 114.928 352.749 115.216 351.597 115.216C350.589 115.216 349.693 115.016 348.909 114.616C348.125 114.2 347.485 113.688 346.989 113.08V121.288H344.253V101.776H346.989V103.72ZM355.029 108.328C355.029 107.416 354.837 106.632 354.453 105.976C354.085 105.304 353.589 104.8 352.965 104.464C352.357 104.112 351.701 103.936 350.997 103.936C350.309 103.936 349.653 104.112 349.029 104.464C348.421 104.816 347.925 105.328 347.541 106C347.173 106.672 346.989 107.464 346.989 108.376C346.989 109.288 347.173 110.088 347.541 110.776C347.925 111.448 348.421 111.96 349.029 112.312C349.653 112.664 350.309 112.84 350.997 112.84C351.701 112.84 352.357 112.664 352.965 112.312C353.589 111.944 354.085 111.416 354.453 110.728C354.837 110.04 355.029 109.24 355.029 108.328ZM372.423 101.776L364.311 121.216H361.479L364.167 114.784L358.959 101.776H362.007L365.727 111.856L369.591 101.776H372.423ZM386.218 115.168C385.098 115.168 384.09 114.976 383.194 114.592C382.298 114.192 381.594 113.632 381.082 112.912C380.57 112.192 380.314 111.352 380.314 110.392H383.242C383.306 111.112 383.586 111.704 384.082 112.168C384.594 112.632 385.306 112.864 386.218 112.864C387.162 112.864 387.898 112.64 388.426 112.192C388.954 111.728 389.218 111.136 389.218 110.416C389.218 109.856 389.05 109.4 388.714 109.048C388.394 108.696 387.986 108.424 387.49 108.232C387.01 108.04 386.338 107.832 385.474 107.608C384.386 107.32 383.498 107.032 382.81 106.744C382.138 106.44 381.562 105.976 381.082 105.352C380.602 104.728 380.362 103.896 380.362 102.856C380.362 101.896 380.602 101.056 381.082 100.336C381.562 99.616 382.234 99.064 383.098 98.68C383.962 98.296 384.962 98.104 386.098 98.104C387.714 98.104 389.034 98.512 390.058 99.328C391.098 100.128 391.674 101.232 391.786 102.64H388.762C388.714 102.032 388.426 101.512 387.898 101.08C387.37 100.648 386.674 100.432 385.81 100.432C385.026 100.432 384.386 100.632 383.89 101.032C383.394 101.432 383.146 102.008 383.146 102.76C383.146 103.272 383.298 103.696 383.602 104.032C383.922 104.352 384.322 104.608 384.802 104.8C385.282 104.992 385.938 105.2 386.77 105.424C387.874 105.728 388.77 106.032 389.458 106.336C390.162 106.64 390.754 107.112 391.234 107.752C391.73 108.376 391.978 109.216 391.978 110.272C391.978 111.12 391.746 111.92 391.282 112.672C390.834 113.424 390.17 114.032 389.29 114.496C388.426 114.944 387.402 115.168 386.218 115.168ZM398.398 104.008V111.328C398.398 111.824 398.51 112.184 398.734 112.408C398.974 112.616 399.374 112.72 399.934 112.72H401.614V115H399.454C398.222 115 397.278 114.712 396.622 114.136C395.966 113.56 395.638 112.624 395.638 111.328V104.008H394.078V101.776H395.638V98.488H398.398V101.776H401.614V104.008H398.398ZM416.112 101.776V115H413.376V113.44C412.944 113.984 412.376 114.416 411.672 114.736C410.984 115.04 410.248 115.192 409.464 115.192C408.424 115.192 407.488 114.976 406.656 114.544C405.84 114.112 405.192 113.472 404.712 112.624C404.248 111.776 404.016 110.752 404.016 109.552V101.776H406.728V109.144C406.728 110.328 407.024 111.24 407.616 111.88C408.208 112.504 409.016 112.816 410.04 112.816C411.064 112.816 411.872 112.504 412.464 111.88C413.072 111.24 413.376 110.328 413.376 109.144V101.776H416.112ZM418.81 108.328C418.81 107 419.082 105.824 419.626 104.8C420.186 103.776 420.938 102.984 421.882 102.424C422.842 101.848 423.906 101.56 425.074 101.56C425.938 101.56 426.786 101.752 427.618 102.136C428.466 102.504 429.138 103 429.634 103.624V97.24H432.394V115H429.634V113.008C429.186 113.648 428.562 114.176 427.762 114.592C426.978 115.008 426.074 115.216 425.05 115.216C423.898 115.216 422.842 114.928 421.882 114.352C420.938 113.76 420.186 112.944 419.626 111.904C419.082 110.848 418.81 109.656 418.81 108.328ZM429.634 108.376C429.634 107.464 429.442 106.672 429.058 106C428.69 105.328 428.202 104.816 427.594 104.464C426.986 104.112 426.33 103.936 425.626 103.936C424.922 103.936 424.266 104.112 423.658 104.464C423.05 104.8 422.554 105.304 422.17 105.976C421.802 106.632 421.618 107.416 421.618 108.328C421.618 109.24 421.802 110.04 422.17 110.728C422.554 111.416 423.05 111.944 423.658 112.312C424.282 112.664 424.938 112.84 425.626 112.84C426.33 112.84 426.986 112.664 427.594 112.312C428.202 111.96 428.69 111.448 429.058 110.776C429.442 110.088 429.634 109.288 429.634 108.376ZM448.108 108.064C448.108 108.56 448.076 109.008 448.012 109.408H437.908C437.988 110.464 438.38 111.312 439.084 111.952C439.788 112.592 440.652 112.912 441.676 112.912C443.148 112.912 444.188 112.296 444.796 111.064H447.747C447.348 112.28 446.62 113.28 445.564 114.064C444.524 114.832 443.228 115.216 441.676 115.216C440.412 115.216 439.276 114.936 438.268 114.376C437.276 113.8 436.492 113 435.916 111.976C435.356 110.936 435.076 109.736 435.076 108.376C435.076 107.016 435.348 105.824 435.892 104.8C436.452 103.76 437.228 102.96 438.22 102.4C439.228 101.84 440.38 101.56 441.676 101.56C442.924 101.56 444.036 101.832 445.012 102.376C445.988 102.92 446.748 103.688 447.292 104.68C447.836 105.656 448.108 106.784 448.108 108.064ZM445.252 107.2C445.236 106.192 444.876 105.384 444.172 104.776C443.468 104.168 442.596 103.864 441.556 103.864C440.612 103.864 439.804 104.168 439.132 104.776C438.46 105.368 438.06 106.176 437.932 107.2H445.252ZM457.472 101.56C458.512 101.56 459.44 101.776 460.256 102.208C461.088 102.64 461.736 103.28 462.2 104.128C462.664 104.976 462.896 106 462.896 107.2V115H460.184V107.608C460.184 106.424 459.888 105.52 459.296 104.896C458.704 104.256 457.896 103.936 456.872 103.936C455.848 103.936 455.032 104.256 454.424 104.896C453.832 105.52 453.536 106.424 453.536 107.608V115H450.8V101.776H453.536V103.288C453.984 102.744 454.552 102.32 455.24 102.016C455.944 101.712 456.688 101.56 457.472 101.56ZM469.578 104.008V111.328C469.578 111.824 469.69 112.184 469.914 112.408C470.154 112.616 470.554 112.72 471.114 112.72H472.794V115H470.634C469.402 115 468.458 114.712 467.802 114.136C467.146 113.56 466.818 112.624 466.818 111.328V104.008H465.258V101.776H466.818V98.488H469.578V101.776H472.794V104.008H469.578ZM480.116 115.216C479.076 115.216 478.14 115.032 477.308 114.664C476.492 114.28 475.844 113.768 475.364 113.128C474.884 112.472 474.628 111.744 474.596 110.944H477.428C477.476 111.504 477.74 111.976 478.22 112.36C478.716 112.728 479.332 112.912 480.068 112.912C480.836 112.912 481.428 112.768 481.844 112.48C482.276 112.176 482.492 111.792 482.492 111.328C482.492 110.832 482.252 110.464 481.772 110.224C481.308 109.984 480.564 109.72 479.54 109.432C478.548 109.16 477.74 108.896 477.116 108.64C476.492 108.384 475.948 107.992 475.484 107.464C475.036 106.936 474.812 106.24 474.812 105.376C474.812 104.672 475.02 104.032 475.436 103.456C475.852 102.864 476.444 102.4 477.212 102.064C477.996 101.728 478.892 101.56 479.9 101.56C481.404 101.56 482.612 101.944 483.524 102.712C484.452 103.464 484.948 104.496 485.012 105.808H482.276C482.228 105.216 481.988 104.744 481.556 104.392C481.124 104.04 480.54 103.864 479.804 103.864C479.084 103.864 478.532 104 478.148 104.272C477.764 104.544 477.572 104.904 477.572 105.352C477.572 105.704 477.7 106 477.956 106.24C478.212 106.48 478.524 106.672 478.892 106.816C479.26 106.944 479.804 107.112 480.524 107.32C481.484 107.576 482.268 107.84 482.876 108.112C483.5 108.368 484.036 108.752 484.484 109.264C484.932 109.776 485.164 110.456 485.18 111.304C485.18 112.056 484.972 112.728 484.556 113.32C484.14 113.912 483.548 114.376 482.78 114.712C482.028 115.048 481.14 115.216 480.116 115.216Z" fill="black" fill-opacity="0.8"/>
</svg>
